<?xml version="1.0" encoding="utf-8" ?><svg xmlns="http://www.w3.org/2000/svg" xmlns:xlink="http://www.w3.org/1999/xlink" width="1024" height="1024" viewBox="0 0 1024 1024"><path d="M779.864 423.716C780.825 423.645 781.787 423.605 782.749 423.596C803.655 423.287 830.514 432.483 845.354 447.46C864.333 466.718 871.685 492.391 872.088 518.806C872.985 577.575 839.546 621.429 778.16 621.476C724.656 621.023 690.611 588.662 686.305 535.716C682.581 489.927 701.477 446.616 746.71 429.993C757.962 425.858 768.128 424.616 779.864 423.716ZM787.615 593.482C796.016 591.872 803.443 589.163 808.314 581.468C822.32 559.349 820.363 527.071 815.496 502.319C812.603 487.608 806.344 467.352 793.19 459.042C785.309 454.063 779.629 453.232 770.626 453.601C761.54 455.438 753.997 457.383 748.867 465.857C735.513 487.916 738.087 519.245 743.142 543.634C748.479 569.386 757.667 594.201 787.615 593.482Z"/><path d="M236.133 353.25C267.327 350.02 318.894 363.506 319.298 402.384C319.483 420.294 310.126 430.91 291.67 430.162C269.668 429.948 275.004 404.775 263.444 393.3C250.633 380.582 224.141 383.339 211.853 395.67C205.844 401.7 202.998 408.657 203.034 417.185C202.957 447.37 242.263 451.831 264.127 460.663C299.825 475.084 323.4 500.578 322.473 540.752C321.964 562.782 316.097 584.139 299.265 599.826C276.076 621.438 248.303 623.411 218.325 622.456C197.806 621.167 180.299 615.892 163.28 602.311C146.704 589.084 139.388 563.277 153.271 545.138C158.311 538.554 168.335 536.867 176.58 536.481C206.034 534.963 192.041 568.073 208.677 581.378C221.562 591.684 242.48 592.529 256.679 584.341C269.841 576.751 274.852 564.488 273.526 549.635C270.684 517.784 233.193 514.185 209.29 505.338C178.309 494.36 154.752 472.871 152.201 438.648C148.049 383.969 185.185 356.797 236.133 353.25Z"/><path fill="#6366F1" d="M363.232 383.736C372.165 383.597 381.904 383.916 390.896 384.033L391.013 429.998L505.523 430.013C504.923 463.494 505.51 498.905 505.549 532.546C509.341 532.306 537.106 532.259 539.589 532.853C540.067 534.307 539.53 565.269 539.526 568.618C539.458 590.403 539.598 612.187 539.946 633.969C529.516 633.991 516.285 633.654 506.077 634.34C506.187 622.839 506.206 611.338 506.135 599.837C495.821 600.423 482.422 600.066 471.918 600.07C472.873 567.231 472.049 531.095 472.057 497.932C463.245 497.654 446.871 497.343 438.166 497.788C437.958 491.667 438.076 484.918 438.067 478.75L437.996 452.274C426.737 451.917 415.262 452.38 403.983 452.197C399.743 452.128 395.229 452.122 391.028 452.537C390.463 472.216 390.981 492.671 390.644 512.554C390.904 530.649 389.391 549.012 392.117 566.972C395.575 589.763 414.694 588.45 432.062 588.497C427.893 611.203 412.489 620.644 390.017 620.703C332.941 620.852 339.39 568.915 339.41 527.952L339.512 453.007C332.08 453.028 320.49 452.576 313.592 453.229C313.456 449.023 313.508 444.552 313.486 440.323C343.049 428.267 345.878 413.336 350.837 383.995C354.97 383.982 359.102 383.895 363.232 383.736Z"/><path d="M590.304 358.583C606.79 358.373 623.854 358.698 640.384 358.507C649.401 358.403 657.745 359.091 666.94 358.536C666.267 398.391 667.234 438.431 666.864 478.297C666.581 511.967 667.005 545.631 667.301 579.273C667.477 599.15 679.715 598.804 694.509 601.627C694.623 606.6 694.498 611.889 694.465 616.888C685.248 616.987 675.856 616.859 666.625 616.824L616.236 616.853C609.246 616.87 596.131 616.531 589.544 617.257L589.513 601.945C598.992 601.713 612.889 598.161 615.526 587.814C619.164 573.538 617.927 556.186 617.928 541.367L617.666 483.974C617.693 458.452 618.663 432.941 617.587 407.429C616.591 383.799 610.774 378.829 589.68 372.275C589.554 369.863 589.563 360.394 590.304 358.583Z"/><path fill="#6366F1" d="M540.262 430.081L608.042 430.03C607.73 437.296 607.136 456.838 608.033 463.033C597.008 463.031 585.049 463.332 574.153 463.126C573.395 473.523 573.87 488.451 573.908 499.125C573.66 509.868 573.93 520.899 573.837 531.72L540.139 532.011C539.567 505.509 540.344 478.751 540.027 452.226C539.941 445.01 539.878 437.26 540.262 430.081Z"/><path fill="#6366F1" d="M447.631 634.767C464.996 633.905 487.655 634.535 505.488 634.541C505.592 645.634 505.602 656.728 505.518 667.821C502.848 667.6 499.031 667.671 496.25 667.653L463.813 667.833C455.912 667.827 445.464 667.5 437.748 668.059C438.533 659.72 438.1 643.915 438.107 635.022L447.631 634.767Z"/></svg>
